<svg height="512pt" viewBox="-128 0 512 512" width="512pt" xmlns="http://www.w3.org/2000/svg"><path d="m128 96c-8.832031 0-16-7.167969-16-16 0-26.453125-21.523438-48-48-48h-48c-8.832031 0-16-7.167969-16-16s7.167969-16 16-16h48c44.117188 0 80 35.902344 80 80 0 8.832031-7.167969 16-16 16zm0 0"/><path d="m128 96c-8.832031 0-16-7.167969-16-16 0-44.097656 35.882812-80 80-80h48c8.832031 0 16 7.167969 16 16s-7.167969 16-16 16h-48c-26.476562 0-48 21.546875-48 48 0 8.832031-7.167969 16-16 16zm0 0"/><path d="m64 512h-48c-8.832031 0-16-7.167969-16-16s7.167969-16 16-16h48c26.476562 0 48-21.546875 48-48 0-8.832031 7.167969-16 16-16s16 7.167969 16 16c0 44.097656-35.882812 80-80 80zm0 0"/><path d="m240 512h-48c-44.117188 0-80-35.902344-80-80 0-8.832031 7.167969-16 16-16s16 7.167969 16 16c0 26.453125 21.523438 48 48 48h48c8.832031 0 16 7.167969 16 16s-7.167969 16-16 16zm0 0"/><path d="m128 448c-8.832031 0-16-7.167969-16-16v-352c0-8.832031 7.167969-16 16-16s16 7.167969 16 16v352c0 8.832031-7.167969 16-16 16zm0 0"/></svg>